<svg xmlns="http://www.w3.org/2000/svg" xmlns:xlink="http://www.w3.org/1999/xlink" version="1.1" width="120" height="120" viewBox="0 0 1000 1000" xml:space="preserve">
<desc>Created with Fabric.js 3.5.0</desc>
<defs>
</defs>
<rect x="0" y="0" width="100%" height="100%" fill="#dedede"/>
<g transform="matrix(19.7628 0 0 19.7628 499.9989 499.9989)" id="127553">
<g style="" vector-effect="non-scaling-stroke">
		<g transform="matrix(1 0 0 1 0.75 0.0691)" id="Vector">
<path style="stroke: #dedede; stroke-width: 1.8182; stroke-dasharray: none; stroke-linecap: round; stroke-dashoffset: 0; stroke-linejoin: round; stroke-miterlimit: 4; is-custom-font: none; font-file-url: none; fill: none; fill-rule: nonzero; opacity: 1;" transform=" translate(-23.75, -23.0691)" d="M 41 19.2509 C 41 32.6145 23.75 44.0691 23.75 44.0691 C 23.75 44.0691 6.5 32.6145 6.5 19.2509 C 6.5 14.694 8.31741 10.3237 11.5524 7.10153 C 14.7874 3.87931 19.175 2.06909 23.75 2.06909 C 28.325 2.06909 32.7126 3.87931 35.9476 7.10153 C 39.1826 10.3237 41 14.694 41 19.2509 Z" stroke-linecap="round"/>
</g>
		<g transform="matrix(1 0 0 1 0 -2.9309)" id="Vector_2">
<path style="stroke: #dedede; stroke-width: 1.8182; stroke-dasharray: none; stroke-linecap: round; stroke-dashoffset: 0; stroke-linejoin: round; stroke-miterlimit: 4; is-custom-font: none; font-file-url: none; fill: none; fill-rule: nonzero; opacity: 1;" transform=" translate(-23, -20.0691)" d="M 23 26.0691 C 26.3137 26.0691 29 23.3828 29 20.0691 C 29 16.7554 26.3137 14.0691 23 14.0691 C 19.6863 14.0691 17 16.7554 17 20.0691 C 17 23.3828 19.6863 26.0691 23 26.0691 Z" stroke-linecap="round"/>
</g>
</g>
</g>
<g transform="matrix(8.4891 0 0 8.4891 498.6329 498.6329)" id="799194">
<circle style="stroke: none; stroke-width: 1; stroke-dasharray: none; stroke-linecap: butt; stroke-dashoffset: 0; stroke-linejoin: miter; stroke-miterlimit: 4; is-custom-font: none; font-file-url: none; fill: rgb(0,92,255); fill-rule: nonzero; opacity: 1;" vector-effect="non-scaling-stroke" cx="0" cy="0" r="45"/>
</g>
<g transform="matrix(8.7016 0 0 8.7016 495.2188 495.2188)" id="611114">
<g style="" vector-effect="non-scaling-stroke">
		<g transform="matrix(1 0 0 1 0.75 0.0691)" id="Vector">
<path style="stroke: #dedede; stroke-width: 1.8182; stroke-dasharray: none; stroke-linecap: round; stroke-dashoffset: 0; stroke-linejoin: round; stroke-miterlimit: 4; is-custom-font: none; font-file-url: none; fill: none; fill-rule: nonzero; opacity: 1;" transform=" translate(-23.75, -23.0691)" d="M 41 19.2509 C 41 32.6145 23.75 44.0691 23.75 44.0691 C 23.75 44.0691 6.5 32.6145 6.5 19.2509 C 6.5 14.694 8.31741 10.3237 11.5524 7.10153 C 14.7874 3.87931 19.175 2.06909 23.75 2.06909 C 28.325 2.06909 32.7126 3.87931 35.9476 7.10153 C 39.1826 10.3237 41 14.694 41 19.2509 Z" stroke-linecap="round"/>
</g>
		<g transform="matrix(1 0 0 1 0 -2.9309)" id="Vector_2">
<path style="stroke: #fff; stroke-width: 1.8182; stroke-dasharray: none; stroke-linecap: round; stroke-dashoffset: 0; stroke-linejoin: round; stroke-miterlimit: 4; is-custom-font: none; font-file-url: none; fill: none; fill-rule: nonzero; opacity: 1;" transform=" translate(-23, -20.0691)" d="M 23 26.0691 C 26.3137 26.0691 29 23.3828 29 20.0691 C 29 16.7554 26.3137 14.0691 23 14.0691 C 19.6863 14.0691 17 16.7554 17 20.0691 C 17 23.3828 19.6863 26.0691 23 26.0691 Z" stroke-linecap="round"/>
</g>
</g>
</g>
</svg>